<svg xmlns="http://www.w3.org/2000/svg" viewBox="0 0 520 622">
    <path fill="#3e4989" d="M150 0v86a6 6 0 0 1-6 6H16a6 6 0 0 1-6-6V0h2v86a4 4 0 0 0 4 4h128a4 4 0 0 0 4-4V0h2zM40 33h22a1 1 0 0 1 0 2H40a1 1 0 0 1 0-2zm60 0h32a1 1 0 1 1 0 2h-32a1 1 0 0 1 0-2zM50 70h62a1 1 0 1 1 0 2H50a1 1 0 0 1 0-2zM29 4h102a2 2 0 0 1 2 2v12a2 2 0 0 1-2 2H29a2 2 0 0 1-2-2V6c0-1.1.9-2 2-2zm0 40h102a2 2 0 0 1 2 2v12a2 2 0 0 1-2 2H29a2 2 0 0 1-2-2V46c0-1.1.9-2 2-2zm0-14h4a2 2 0 0 1 2 2v4a2 2 0 0 1-2 2h-4a2 2 0 0 1-2-2v-4c0-1.1.9-2 2-2zm0-24v12h102V6H29zm36 45a1 1 0 0 0 0 2h32a1 1 0 0 0 0-2H65zM29 32v4h4v-4h-4zm121 590h-2v-64a4 4 0 0 0-4-4H16a4 4 0 0 0-4 4v64h-2v-64a6 6 0 0 1 6-6h128a6 6 0 0 1 6 6v64zM29 594h102a2 2 0 0 1 2 2v12a2 2 0 0 1-2 2H29a2 2 0 0 1-2-2v-12c0-1.1.9-2 2-2zm0 2v12h102v-12H29zm-1-8h22a1 1 0 1 1 0 2H28a1 1 0 1 1 0-2zm0 32h22a1 1 0 1 1 0 2H28a1 1 0 1 1 0-2zm21-48h62a1 1 0 1 1 0 2H49a1 1 0 1 1 0-2zM457 60h-88v12h88V60zM356 10h148a6 6 0 0 1 6 6v66a6 6 0 0 1-6 6H356a6 6 0 0 1-6-6V16a6 6 0 0 1 6-6zm0 2a4 4 0 0 0-4 4v66a4 4 0 0 0 4 4h148a4 4 0 0 0 4-4V16a4 4 0 0 0-4-4H356zm13 46h122a2 2 0 0 1 2 2v12a2 2 0 0 1-2 2H369a2 2 0 0 1-2-2V60c0-1.1.9-2 2-2zm98 7a1 1 0 1 0 0 2h16a1 1 0 1 0 0-2h-16zm-99-13h22a1 1 0 1 1 0 2h-22a1 1 0 1 1 0-2zm31-26h62a1 1 0 1 1 0 2h-62a1 1 0 1 1 0-2zm-10 10h82a1 1 0 1 1 0 2h-82a1 1 0 1 1 0-2zm10 6h62a1 1 0 1 1 0 2h-62a1 1 0 1 1 0-2zM176 217h148a6 6 0 0 1 6 6v150a6 6 0 0 1-6 6H176a6 6 0 0 1-6-6V223a6 6 0 0 1 6-6zm0 2a4 4 0 0 0-4 4v150a4 4 0 0 0 4 4h148a4 4 0 0 0 4-4V223a4 4 0 0 0-4-4H176zm49 29h86a2 2 0 0 1 2 2v10a2 2 0 0 1-2 2h-86a2 2 0 0 1-2-2v-10c0-1.1.9-2 2-2zm0 2v10h86v-10h-86zm-37 4h22a1 1 0 1 1 0 2h-22a1 1 0 1 1 0-2zm37 18h86a2 2 0 0 1 2 2v10a2 2 0 0 1-2 2h-86a2 2 0 0 1-2-2v-10c0-1.1.9-2 2-2zm0 2v10h86v-10h-86zm-37 4h22a1 1 0 1 1 0 2h-22a1 1 0 1 1 0-2zm37 18h86a2 2 0 0 1 2 2v10a2 2 0 0 1-2 2h-86a2 2 0 0 1-2-2v-10c0-1.1.9-2 2-2zm0 2v10h86v-10h-86zm0 22h36a2 2 0 0 1 2 2v10a2 2 0 0 1-2 2h-36a2 2 0 0 1-2-2v-10c0-1.1.9-2 2-2zm0 2v10h36v-10h-36zm50-2h36a2 2 0 0 1 2 2v10a2 2 0 0 1-2 2h-36a2 2 0 0 1-2-2v-10c0-1.1.9-2 2-2zm0 2v10h36v-10h-36zm-87-20h22a1 1 0 1 1 0 2h-22a1 1 0 1 1 0-2zm0 24h22a1 1 0 1 1 0 2h-22a1 1 0 1 1 0-2zm37 20h38a2 2 0 0 1 2 2v12a2 2 0 0 1-2 2h-38a2 2 0 0 1-2-2v-12c0-1.1.9-2 2-2zm11 7a1 1 0 1 0 0 2h16a1 1 0 1 0 0-2h-16zm-48-119h62a1 1 0 1 1 0 2h-62a1 1 0 1 1 0-2zm305-53v16a2 2 0 0 1-2 2H369a2 2 0 0 1-2-2v-34c0-1.1.9-2 2-2h122a2 2 0 0 1 2 2v18zm-2-2v-16H369v16h122zm-135-71h148a6 6 0 0 1 6 6v148a6 6 0 0 1-6 6H356a6 6 0 0 1-6-6V114a6 6 0 0 1 6-6zm0 2a4 4 0 0 0-4 4v148a4 4 0 0 0 4 4h148a4 4 0 0 0 4-4V114a4 4 0 0 0-4-4H356zm13 71v16h122v-16H369zm9-11h32a1 1 0 1 1 0 2h-32a1 1 0 1 1 0-2zm0 18h42a1 1 0 1 1 0 2h-42a1 1 0 1 1 0-2zm6 25h32a1 1 0 1 1 0 2h-32a1 1 0 1 1 0-2zm66 0h42a1 1 0 1 1 0 2h-42a1 1 0 1 1 0-2zm-81-4h8a2 2 0 0 1 2 2v8a2 2 0 0 1-2 2h-8a2 2 0 0 1-2-2v-8c0-1.1.9-2 2-2zm0 2v8h8v-8h-8zm0 20h122a2 2 0 0 1 2 2v16a2 2 0 0 1-2 2H369a2 2 0 0 1-2-2v-16c0-1.1.9-2 2-2zm43 9a1 1 0 1 0 0 2h36a1 1 0 1 0 0-2h-36zm-44-115h52a1 1 0 1 1 0 2h-52a1 1 0 1 1 0-2zm0 10h102a1 1 0 1 1 0 2H368a1 1 0 1 1 0-2zm0 6h62a1 1 0 1 1 0 2h-62a1 1 0 1 1 0-2zm-12 325h148a6 6 0 0 1 6 6v134a6 6 0 0 1-6 6H356a6 6 0 0 1-6-6V472a6 6 0 0 1 6-6zm0 2a4 4 0 0 0-4 4v134a4 4 0 0 0 4 4h148a4 4 0 0 0 4-4V472a4 4 0 0 0-4-4H356zm13 32h56a2 2 0 0 1 2 2v12a2 2 0 0 1-2 2h-56a2 2 0 0 1-2-2v-12c0-1.1.9-2 2-2zm0 2v12h56v-12h-56zm-1-8h22a1 1 0 1 1 0 2h-22a1 1 0 1 1 0-2zm92 7h22a1 1 0 1 1 0 2h-22a1 1 0 1 1 0-2zm0 6h12a1 1 0 1 1 0 2h-12a1 1 0 1 1 0-2zm-91 23h56a2 2 0 0 1 2 2v12a2 2 0 0 1-2 2h-56a2 2 0 0 1-2-2v-12c0-1.1.9-2 2-2zm0 2v12h56v-12h-56zm-1-8h22a1 1 0 1 1 0 2h-22a1 1 0 1 1 0-2zm0 30h52a1 1 0 1 1 0 2h-52a1 1 0 1 1 0-2zm67-24h56a2 2 0 0 1 2 2v12a2 2 0 0 1-2 2h-56a2 2 0 0 1-2-2v-12c0-1.1.9-2 2-2zm0 2v12h56v-12h-56zm-1-8h22a1 1 0 1 1 0 2h-22a1 1 0 1 1 0-2zm-62 36a5 5 0 1 1 0 10 5 5 0 0 1 0-10zm0 2a3 3 0 1 0 0 6 3 3 0 0 0 0-6zm10 2h16a1 1 0 1 1 0 2h-16a1 1 0 1 1 0-2zm32-4a5 5 0 1 1 0 10 5 5 0 0 1 0-10zm0 2a3 3 0 1 0 0 6 3 3 0 0 0 0-6zm10 2h16a1 1 0 1 1 0 2h-16a1 1 0 1 1 0-2zm32-4a5 5 0 1 1 0 10 5 5 0 0 1 0-10zm0 2a3 3 0 1 0 0 6 3 3 0 0 0 0-6zm10 2h19a1 1 0 1 1 0 2h-19a1 1 0 1 1 0-2zm-97 14h122a2 2 0 0 1 2 2v14a2 2 0 0 1-2 2H369a2 2 0 0 1-2-2v-14c0-1.1.9-2 2-2zm43 8a1 1 0 1 0 0 2h36a1 1 0 1 0 0-2h-36zm-44-104h102a1 1 0 1 1 0 2H368a1 1 0 1 1 0-2zm76 34a11 11 0 1 1 0-22 11 11 0 0 1 0 22zm0-2a9 9 0 1 0 0-18 9 9 0 0 0 0 18zM16 316h128a6 6 0 0 1 6 6v204a6 6 0 0 1-6 6H16a6 6 0 0 1-6-6V322a6 6 0 0 1 6-6zm0 2a4 4 0 0 0-4 4v204a4 4 0 0 0 4 4h128a4 4 0 0 0 4-4V322a4 4 0 0 0-4-4H16zm77 188h38a2 2 0 0 1 2 2v12a2 2 0 0 1-2 2H93a2 2 0 0 1-2-2v-12c0-1.1.9-2 2-2zm11 7a1 1 0 1 0 0 2h16a1 1 0 1 0 0-2h-16zM29 352h102a2 2 0 0 1 2 2v10a2 2 0 0 1-2 2H29a2 2 0 0 1-2-2v-10c0-1.1.9-2 2-2zm0 2v10h102v-10H29zm-1-8h22a1 1 0 1 1 0 2H28a1 1 0 1 1 0-2zm0-12h42a1 1 0 1 1 0 2H28a1 1 0 1 1 0-2zm0 40h22a1 1 0 1 1 0 2H28a1 1 0 1 1 0-2zm1 6h102a2 2 0 0 1 2 2v10a2 2 0 0 1-2 2H29a2 2 0 0 1-2-2v-10c0-1.1.9-2 2-2zm0 2v10h102v-10H29zm-1 20h22a1 1 0 1 1 0 2H28a1 1 0 1 1 0-2zm0 42h62a1 1 0 1 1 0 2H28a1 1 0 1 1 0-2zm10 9h6a1 1 0 1 1 0 2h-6a1 1 0 1 1 0-2zm17-3a4 4 0 1 1 0 8 4 4 0 0 1 0-8zm0 2a2 2 0 1 0 0 4 2 2 0 0 0 0-4zm7 1h6a1 1 0 1 1 0 2h-6a1 1 0 1 1 0-2zm17-3a4 4 0 1 1 0 8 4 4 0 0 1 0-8zm0 2a2 2 0 1 0 0 4 2 2 0 0 0 0-4zm7 1h6a1 1 0 1 1 0 2h-6a1 1 0 1 1 0-2zm17-3a4 4 0 1 1 0 8 4 4 0 0 1 0-8zm0 2a2 2 0 1 0 0 4 2 2 0 0 0 0-4zm7 1h6a1 1 0 1 1 0 2h-6a1 1 0 1 1 0-2zm-81-45h102a2 2 0 0 1 2 2v24a2 2 0 0 1-2 2H29a2 2 0 0 1-2-2v-24c0-1.1.9-2 2-2zm0 2v24h102v-24H29zm-1 54h22a1 1 0 1 1 0 2H28a1 1 0 1 1 0-2zm1 6h102a2 2 0 0 1 2 2v24a2 2 0 0 1-2 2H29a2 2 0 0 1-2-2v-24c0-1.1.9-2 2-2zm0 2v24h102v-24H29zM16 112h128a6 6 0 0 1 6 6v172a6 6 0 0 1-6 6H16a6 6 0 0 1-6-6V118a6 6 0 0 1 6-6zm0 2a4 4 0 0 0-4 4v172a4 4 0 0 0 4 4h128a4 4 0 0 0 4-4V118a4 4 0 0 0-4-4H16zm13 154h38a2 2 0 0 1 2 2v12a2 2 0 0 1-2 2H29a2 2 0 0 1-2-2v-12c0-1.1.9-2 2-2zm11 7a1 1 0 1 0 0 2h16a1 1 0 1 0 0-2H40zM29 148h102a2 2 0 0 1 2 2v10a2 2 0 0 1-2 2H29a2 2 0 0 1-2-2v-10c0-1.1.9-2 2-2zm0 2v10h102v-10H29zm-1-8h22a1 1 0 1 1 0 2H28a1 1 0 1 1 0-2zm0-12h42a1 1 0 1 1 0 2H28a1 1 0 1 1 0-2zm0 40h22a1 1 0 1 1 0 2H28a1 1 0 1 1 0-2zm1 6h102a2 2 0 0 1 2 2v10a2 2 0 0 1-2 2H29a2 2 0 0 1-2-2v-10c0-1.1.9-2 2-2zm0 2v10h102v-10H29zm-1 20h22a1 1 0 1 1 0 2H28a1 1 0 1 1 0-2zm1 6h102a2 2 0 0 1 2 2v10a2 2 0 0 1-2 2H29a2 2 0 0 1-2-2v-10c0-1.1.9-2 2-2zm0 2v10h102v-10H29zm-1 20h22a1 1 0 1 1 0 2H28a1 1 0 1 1 0-2zm1 6h102a2 2 0 0 1 2 2v24a2 2 0 0 1-2 2H29a2 2 0 0 1-2-2v-24c0-1.1.9-2 2-2zm0 2v24h102v-24H29zm479 178V294a4 4 0 0 0-4-4H356a4 4 0 0 0-4 4v118h156zm0 2H352v26a4 4 0 0 0 4 4h148a4 4 0 0 0 4-4v-26zM356 288h148a6 6 0 0 1 6 6v146a6 6 0 0 1-6 6H356a6 6 0 0 1-6-6V294a6 6 0 0 1 6-6zm52 102a5 5 0 1 1 0 10 5 5 0 0 1 0-10zm0 2a3 3 0 1 0 0 6 3 3 0 0 0 0-6zm10 2h16a1 1 0 1 1 0 2h-16a1 1 0 1 1 0-2zm32-4a5 5 0 1 1 0 10 5 5 0 0 1 0-10zm0 2a3 3 0 1 0 0 6 3 3 0 0 0 0-6zm10 2h26a1 1 0 1 1 0 2h-26a1 1 0 1 1 0-2zm-55-76h86a2 2 0 0 1 2 2v12a2 2 0 0 1-2 2h-86a2 2 0 0 1-2-2v-12c0-1.1.9-2 2-2zm0 2v12h86v-12h-86zm-37 5h22a1 1 0 1 1 0 2h-22a1 1 0 1 1 0-2zm37 17h86a2 2 0 0 1 2 2v12a2 2 0 0 1-2 2h-86a2 2 0 0 1-2-2v-12c0-1.1.9-2 2-2zm0 2v12h86v-12h-86zm-37 5h22a1 1 0 1 1 0 2h-22a1 1 0 1 1 0-2zm37 17h86a2 2 0 0 1 2 2v12a2 2 0 0 1-2 2h-86a2 2 0 0 1-2-2v-12c0-1.1.9-2 2-2zm0 2v12h86v-12h-86zm-37 5h22a1 1 0 1 1 0 2h-22a1 1 0 1 1 0-2zm0 21h22a1 1 0 1 1 0 2h-22a1 1 0 1 1 0-2zm85 26h38a2 2 0 0 1 2 2v14a2 2 0 0 1-2 2h-38a2 2 0 0 1-2-2v-14c0-1.1.9-2 2-2zm11 8a1 1 0 1 0 0 2h16a1 1 0 1 0 0-2h-16zm-59-8h38a2 2 0 0 1 2 2v14a2 2 0 0 1-2 2h-38a2 2 0 0 1-2-2v-14c0-1.1.9-2 2-2zm0 2v14h38v-14h-38zm11 6h16a1 1 0 1 1 0 2h-16a1 1 0 1 1 0-2zm-48-123h62a1 1 0 1 1 0 2h-62a1 1 0 1 1 0-2zm-192 94h148a6 6 0 0 1 6 6v171a6 6 0 0 1-6 6H176a6 6 0 0 1-6-6V405a6 6 0 0 1 6-6zm0 2a4 4 0 0 0-4 4v171a4 4 0 0 0 4 4h148a4 4 0 0 0 4-4V405a4 4 0 0 0-4-4H176zm13 100h4a2 2 0 0 1 2 2v4a2 2 0 0 1-2 2h-4a2 2 0 0 1-2-2v-4c0-1.1.9-2 2-2zm0 2v4h4v-4h-4zm0 46h122a2 2 0 0 1 2 2v12a2 2 0 0 1-2 2H189a2 2 0 0 1-2-2v-12c0-1.1.9-2 2-2zm53 7a1 1 0 1 0 0 2h16a1 1 0 1 0 0-2h-16zm-53-121h122a2 2 0 0 1 2 2v10a2 2 0 0 1-2 2H189a2 2 0 0 1-2-2v-10c0-1.1.9-2 2-2zm0 2v10h122v-10H189zm-1-8h22a1 1 0 1 1 0 2h-22a1 1 0 1 1 0-2zm0-12h92a1 1 0 1 1 0 2h-92a1 1 0 1 1 0-2zm0 40h22a1 1 0 1 1 0 2h-22a1 1 0 1 1 0-2zm1 6h122a2 2 0 0 1 2 2v10a2 2 0 0 1-2 2H189a2 2 0 0 1-2-2v-10c0-1.1.9-2 2-2zm0 2v10h122v-10H189zm-1 20h124a1 1 0 1 1 0 2H188a1 1 0 1 1 0-2zm0 6h74a1 1 0 1 1 0 2h-74a1 1 0 1 1 0-2zm10 13h56a1 1 0 1 1 0 2h-56a1 1 0 1 1 0-2zm-9 29h4a2 2 0 0 1 2 2v4a2 2 0 0 1-2 2h-4a2 2 0 0 1-2-2v-4c0-1.1.9-2 2-2zm0 2v4h4v-4h-4zm9 1h36a1 1 0 1 1 0 2h-36a1 1 0 1 1 0-2zm-9-19h4a2 2 0 0 1 2 2v4a2 2 0 0 1-2 2h-4a2 2 0 0 1-2-2v-4c0-1.1.9-2 2-2zm0 2v4h4v-4h-4zm9 1h76a1 1 0 1 1 0 2h-76a1 1 0 1 1 0-2z"/>
    <path fill="#3e4989" d="M330 0v191a6 6 0 0 1-6 6H176a6 6 0 0 1-6-6V0h2v191a4 4 0 0 0 4 4h148a4 4 0 0 0 4-4V0h2zM195 164h110a8 8 0 1 1 0 16H195a8 8 0 1 1 0-16zm47 7a1 1 0 1 0 0 2h16a1 1 0 1 0 0-2h-16zM189 16h122a2 2 0 0 1 2 2v10a2 2 0 0 1-2 2H189a2 2 0 0 1-2-2V18c0-1.1.9-2 2-2zm0 2v10h122V18H189zm-1-8h22a1 1 0 1 1 0 2h-22a1 1 0 1 1 0-2zm0 28h22a1 1 0 1 1 0 2h-22a1 1 0 1 1 0-2zm1 6h122a2 2 0 0 1 2 2v10a2 2 0 0 1-2 2H189a2 2 0 0 1-2-2V46c0-1.1.9-2 2-2zm0 2v10h122V46H189zm-1 20h22a1 1 0 1 1 0 2h-22a1 1 0 1 1 0-2zm44 0h22a1 1 0 1 1 0 2h-22a1 1 0 1 1 0-2zm44 0h22a1 1 0 1 1 0 2h-22a1 1 0 1 1 0-2zm-87 6h34a2 2 0 0 1 2 2v10a2 2 0 0 1-2 2h-34a2 2 0 0 1-2-2V74c0-1.1.9-2 2-2zm0 2v10h34V74h-34zm-1 20h22a1 1 0 1 1 0 2h-22a1 1 0 1 1 0-2zm1 6h78a2 2 0 0 1 2 2v10a2 2 0 0 1-2 2h-78a2 2 0 0 1-2-2v-10c0-1.1.9-2 2-2zm0 2v10h78v-10h-78zm-1 20h22a1 1 0 1 1 0 2h-22a1 1 0 1 1 0-2zm1 6h122a2 2 0 0 1 2 2v24a2 2 0 0 1-2 2H189a2 2 0 0 1-2-2v-24c0-1.1.9-2 2-2zm0 2v24h122v-24H189zm44-58h34a2 2 0 0 1 2 2v10a2 2 0 0 1-2 2h-34a2 2 0 0 1-2-2V74c0-1.1.9-2 2-2zm0 2v10h34V74h-34zm44-2h34a2 2 0 0 1 2 2v10a2 2 0 0 1-2 2h-34a2 2 0 0 1-2-2V74c0-1.1.9-2 2-2zm0 2v10h34V74h-34zm53 548h-2v-14a4 4 0 0 0-4-4H176a4 4 0 0 0-4 4v14h-2v-14a6 6 0 0 1 6-6h148a6 6 0 0 1 6 6v14zm-142-2h62a1 1 0 1 1 0 2h-62a1 1 0 1 1 0-2z"/>
</svg>
